<?xml version="1.0" encoding="UTF-8" standalone="no"?>
<!-- Created with Inkscape (http://www.inkscape.org/) -->

<svg
   xmlns:dc="http://purl.org/dc/elements/1.1/"
   xmlns:cc="http://creativecommons.org/ns#"
   xmlns:rdf="http://www.w3.org/1999/02/22-rdf-syntax-ns#"
   xmlns:svg="http://www.w3.org/2000/svg"
   xmlns="http://www.w3.org/2000/svg"
   xmlns:sodipodi="http://sodipodi.sourceforge.net/DTD/sodipodi-0.dtd"
   xmlns:inkscape="http://www.inkscape.org/namespaces/inkscape"
   width="64"
   height="64"
   viewBox="0 0 16.933333 16.933334"
   id="svg5251"
   version="1.1"
   inkscape:version="0.91+devel r"
   sodipodi:docname="jabber-at-icon.svg"
   inkscape:export-filename="/home/mihai/Documents/FSINF/jabber-at-icon.png"
   inkscape:export-xdpi="384.00003"
   inkscape:export-ydpi="384.00003">
  <defs
     id="defs5253" />
  <sodipodi:namedview
     id="base"
     pagecolor="#ffffff"
     bordercolor="#666666"
     borderopacity="1.0"
     inkscape:pageopacity="0.0"
     inkscape:pageshadow="2"
     inkscape:zoom="1"
     inkscape:cx="85.545326"
     inkscape:cy="34.196068"
     inkscape:document-units="mm"
     inkscape:current-layer="g5810"
     showgrid="false"
     units="px"
     inkscape:window-width="1920"
     inkscape:window-height="1035"
     inkscape:window-x="0"
     inkscape:window-y="0"
     inkscape:window-maximized="1" />
  <metadata
     id="metadata5256">
    <rdf:RDF>
      <cc:Work
         rdf:about="">
        <dc:format>image/svg+xml</dc:format>
        <dc:type
           rdf:resource="http://purl.org/dc/dcmitype/StillImage" />
        <dc:title></dc:title>
      </cc:Work>
    </rdf:RDF>
  </metadata>
  <g
     inkscape:label="Layer 1"
     inkscape:groupmode="layer"
     id="layer1"
     transform="translate(0,-280.06665)">
    <g
       id="g5810"
       transform="translate(-0.07559636,0.41575923)">
      <path
         inkscape:connector-curvature="0"
         style="fill:#125da4;fill-opacity:1;fill-rule:nonzero;stroke:none;stroke-width:0.08519658"
         d="m 8.4262943,285.49334 c 0.9372867,1.15687 1.4433545,11.29767 -4.2891367,10.52731 -4.42808714,-0.59504 -3.13785127,-6.00861 1.324668,-5.99999 3.3804369,0.007 9.8518434,0.0313 11.2866404,0.533 -3.778059,0.85215 -9.3878031,-0.90124 -12.997188,1.02049 -5.2795813,2.81098 3.7851761,6.42119 3.9009677,0.9221 0.2865921,-2.2881 -0.4063962,-4.69183 0.7740486,-7.00291 z"
         id="path4226-9-3-0"
         sodipodi:nodetypes="csscscc" />
      <path
         inkscape:connector-curvature="0"
         style="fill:#faa601;fill-opacity:1;fill-rule:nonzero;stroke:none;stroke-width:0.08519658"
         d="m 6.3877925,281.57038 c 0.049385,1.49432 2.0196853,2.24602 3.2296612,1.58585 0.8656903,-0.47513 0.4559463,-1.7765 -0.3521094,-2.07365 -1.1738832,-0.34628 -2.4902453,0.0796 -3.4355965,0.81668 -0.6821389,0.38594 -1.0177746,1.17628 -0.2360434,1.66475 -0.522291,0.78421 -1.4528869,-0.22587 -1.3082579,-0.93773 0.1421978,-0.83474 0.9127474,-1.41778 1.5671461,-1.87337 1.4134199,-0.85185 3.5547421,-0.84119 4.6310374,0.54101 0.697634,1.10899 -0.174341,2.80279 -1.5160163,2.78451 -1.2819639,0.17185 -2.8608934,-0.56284 -3.0467757,-1.95167 -0.043808,-0.28992 0.065276,-0.99572 0.4669545,-0.55638 z"
         id="path4228-6-2-8" />
    </g>
  </g>
</svg>
