<?xml version="1.0" encoding="UTF-8" standalone="no"?>
<!-- Created with Inkscape (http://www.inkscape.org/) -->

<svg
   xmlns:dc="http://purl.org/dc/elements/1.1/"
   xmlns:cc="http://creativecommons.org/ns#"
   xmlns:rdf="http://www.w3.org/1999/02/22-rdf-syntax-ns#"
   xmlns:svg="http://www.w3.org/2000/svg"
   xmlns="http://www.w3.org/2000/svg"
   xmlns:sodipodi="http://sodipodi.sourceforge.net/DTD/sodipodi-0.dtd"
   xmlns:inkscape="http://www.inkscape.org/namespaces/inkscape"
   width="294"
   height="109"
   id="svg3979"
   version="1.1"
   inkscape:version="0.48.4 r9939"
   sodipodi:docname="xmpp-zone-2.svg"
   inkscape:export-filename="/home/mihai/Documents/FSINF/xmpp-zone-2.png"
   inkscape:export-xdpi="90"
   inkscape:export-ydpi="90">
  <defs
     id="defs3981">
    <inkscape:perspective
       sodipodi:type="inkscape:persp3d"
       inkscape:vp_x="0 : 526.18109 : 1"
       inkscape:vp_y="0 : 1000 : 0"
       inkscape:vp_z="744.09448 : 526.18109 : 1"
       inkscape:persp3d-origin="372.04724 : 350.78739 : 1"
       id="perspective3987" />
    <inkscape:perspective
       id="perspective3113"
       inkscape:persp3d-origin="0.5 : 0.33333333 : 1"
       inkscape:vp_z="1 : 0.5 : 1"
       inkscape:vp_y="0 : 1000 : 0"
       inkscape:vp_x="0 : 0.5 : 1"
       sodipodi:type="inkscape:persp3d" />
    <inkscape:perspective
       id="perspective4034"
       inkscape:persp3d-origin="0.5 : 0.33333333 : 1"
       inkscape:vp_z="1 : 0.5 : 1"
       inkscape:vp_y="0 : 1000 : 0"
       inkscape:vp_x="0 : 0.5 : 1"
       sodipodi:type="inkscape:persp3d" />
    <linearGradient
       id="linearGradient3953">
      <stop
         style="stop-color:#000000;stop-opacity:0.24516129;"
         offset="0"
         id="stop3955" />
      <stop
         style="stop-color:#000000;stop-opacity:0;"
         offset="1"
         id="stop3957" />
    </linearGradient>
  </defs>
  <sodipodi:namedview
     id="base"
     pagecolor="#ffffff"
     bordercolor="#666666"
     borderopacity="1.0"
     inkscape:pageopacity="0.0"
     inkscape:pageshadow="2"
     inkscape:zoom="1"
     inkscape:cx="179.97954"
     inkscape:cy="17.048798"
     inkscape:document-units="px"
     inkscape:current-layer="g4197"
     showgrid="false"
     inkscape:window-width="1920"
     inkscape:window-height="1035"
     inkscape:window-x="0"
     inkscape:window-y="0"
     inkscape:window-maximized="1" />
  <metadata
     id="metadata3984">
    <rdf:RDF>
      <cc:Work
         rdf:about="">
        <dc:format>image/svg+xml</dc:format>
        <dc:type
           rdf:resource="http://purl.org/dc/dcmitype/StillImage" />
        <dc:title></dc:title>
      </cc:Work>
    </rdf:RDF>
  </metadata>
  <g
     inkscape:label="Layer 1"
     inkscape:groupmode="layer"
     id="layer1"
     transform="translate(0,-943.3622)">
    <g
       id="g4197"
       transform="matrix(1.2690664,0,0,1.2690664,-396.4295,-478.59795)">
      <g
         transform="matrix(0.448379,0,0,0.448379,347.05745,693.53554)"
         id="g3189">
        <path
           inkscape:connector-curvature="0"
           id="path3139"
           d="m 9.34375,1013.0938 c -3.7980095,3.448 3.59435,5.4393 5.302401,8.2404 12.215129,10.8248 22.674394,23.608 34.822599,34.5096 -4.386735,-13.5069 -15.323065,-23.7664 -25.701703,-32.957 -4.44216,-3.5292 -9.532104,-7.708 -14.423297,-9.793 z"
           style="fill:#125da4;fill-opacity:1;stroke:none" />
        <path
           inkscape:connector-curvature="0"
           id="path3141"
           d="m 57.75,1000.3125 c -19.396899,8.7044 -33.985468,25.306 -47.529177,41.376 -7.0986175,8.664 -12.6478201,18.283 -16.752073,28.6865 22.28953,-21.9867 38.68168,-50.4905 65.9375,-66.9375 -0.465473,-0.7475 0.20406,-4.71446 -1.65625,-3.125 z"
           style="fill:#125da4;fill-opacity:1;stroke:none" />
        <path
           inkscape:connector-curvature="0"
           id="path3187"
           d="m 92.125,990.5 c -4.010244,0.48864 -9.081987,1.04272 -12.15625,3 -0.802587,4.81326 4.967215,0.75035 7.53125,1.15625 5.634018,-1.51015 17.82167,-0.73687 14.28125,7.96875 -6.694887,17.8133 -21.259344,31.3453 -35.17262,43.6791 -26.476575,21.6296 -55.086293,41.672 -86.98363,54.5397 -11.52285,3.8771 -25.982558,9.756 -37.125,1.8437 -8.489301,-6.5687 -4.080566,-18.4451 -0.3125,-26.375 13.185136,-29.8442 36.850874,-53.0313 59.375,-76 1.2929879,-2.87552 8.228305,-5.48924 5.65625,-8.6875 -19.755219,10.4465 -34.660147,27.5662 -48.25,44.9062 -11.576302,16.4266 -23.162362,34.2332 -25.375,54.5938 -1.287015,12.6182 11.797951,21.6095 23.40625,20.75 26.286277,-1.0111 49.9199491,-14.5926 71.836461,-28.2355 27.375566,-18.1751 54.402616,-38.6789 71.394799,-67.3598 3.5783,-6.5506 9.00973,-17.01318 2.39374,-23.2172 -2.93798,-2.34409 -6.855852,-2.80047 -10.5,-2.5625 z"
           style="fill:#ffaa00;fill-opacity:1;stroke:none" />
        <path
           inkscape:connector-curvature="0"
           id="path3143"
           d="m 81.1875,1012.7812 c -3.824539,7.2089 -5.829407,15.3429 -10.59375,22.0626 -1.20682,-4.979 0.162258,-10.9086 -0.78125,-15.4688 -5.087603,-0.7549 -2.8163,6.4543 -4.143271,9.5991 -1.205389,9.3385 -2.297051,18.9257 -3.450479,28.2134 2.744621,0.7669 5.175273,0.67 5.741104,-2.638 4.939506,-9.1338 9.060327,-18.7406 13.102646,-28.3307 1.401776,5.7031 0.144518,13.1115 4.03125,17.875 5.247233,1.7987 7.312146,-5.7782 10.014093,-8.7445 2.907295,-4.6071 5.751657,-9.2514 9.017157,-13.6305 0.50503,10.5331 -1.07499,22.6563 5.65625,31.5312 1.16309,2.6009 7.12793,3.6575 4.375,-0.5312 -4.28045,-12.3336 -3.57158,-25.9634 -4.96875,-38.5626 -3.11467,-2.2399 -6.3171,-1.9801 -7.875,1.7813 -5.299227,7.429 -9.532936,15.8115 -14.125,23.7813 -0.531755,-8.6684 -1.113822,-17.3417 -1.0625,-26.0313 -1.43012,-0.099 -3.979474,-2.3609 -4.9375,-0.9063 z"
           style="fill:#125da4;fill-opacity:1;stroke:none" />
        <path
           inkscape:connector-curvature="0"
           id="path3149"
           d="m 130.3125,1032.4375 c -5.99885,-0.8006 -3.12482,6.8563 -4.35519,10.5259 -1.37333,20.4003 -4.4808,40.7833 -3.92606,61.2554 2.89763,1.1911 4.25304,-0.158 4.28125,-3.2813 3.64112,-22.5562 6.33038,-45.6609 4.375,-68.5625 l -0.375,0.062 z"
           style="fill:#125da4;fill-opacity:1;stroke:none" />
        <path
           inkscape:connector-curvature="0"
           id="path3151"
           d="m 143.46875,1008.4688 c -11.07628,0.4469 -19.91194,10.814 -21.28125,21.0937 5.07318,1.8663 4.54347,-5.2075 7.125,-7.8437 5.71351,-11.9177 25.54759,-11.466 30.40625,0.9062 3.16504,8.4111 -5.89139,14.7397 -12.53125,17.625 -5.47226,3.0619 -11.90032,3.3213 -17.625,4.875 -3.40919,1.1886 -1.26918,5.4314 1.75,5 13.46544,0.6068 28.50368,-6.4569 33.65625,-19.3125 3.68664,-12.6123 -9.77079,-23.3469 -21.5,-22.3437 z"
           style="fill:#125da4;fill-opacity:1;stroke:none" />
        <path
           inkscape:connector-curvature="0"
           id="path3165"
           d="m 186.09375,1031.9688 c -4.459,0.1446 -2.19668,7.4986 -3.6875,10.6874 -2.62469,23.4694 -6.28158,47.1989 -7.0421,70.9686 -0.57691,4.7232 1.36203,1.7555 3.19835,4.5002 4.10637,-7.5293 3.96554,-17.0682 5.56057,-25.4533 2.27597,-20.1589 5.08578,-40.4733 3.62693,-60.7967 -0.55435,-0.023 -1.10456,0.049 -1.65625,0.094 z"
           style="fill:#125da4;fill-opacity:1;stroke:none" />
        <path
           inkscape:connector-curvature="0"
           id="path3167"
           d="m 202.34375,1009.3125 c -18.28767,0.9182 -37.66886,10.1993 -46.34375,26.7187 4.20482,2.4887 5.53525,-4.1489 8.7973,-5.6782 12.25373,-10.334 28.64369,-17.8866 44.9527,-15.5405 4.24424,0.2535 8.72199,4.5929 5.6875,8.8437 -8.68376,14.5124 -26.18794,19.7037 -41.625,23.625 -3.30537,1.2501 2.48129,3.7838 4.21875,3.25 16.30196,-0.9491 33.51332,-9.6327 41.15625,-24.5312 3.17005,-5.8365 0.17366,-14.1938 -6.875,-15.375 -3.15482,-1.1489 -6.63646,-1.3355 -9.96875,-1.3125 z"
           style="fill:#125da4;fill-opacity:1;stroke:none" />
        <path
           sodipodi:nodetypes="cscc"
           inkscape:connector-curvature="0"
           id="path3169"
           d="m 239.42645,1030.8369 c -4.31394,-2.6417 -18.12038,10.2428 -12.4577,19.0069 2.49896,3.8676 4.70661,2.7063 8.5625,-0.25 6.83053,-7.1413 6.4366,-19.2502 3.8952,-18.7569 z"
           style="fill:#125da4;fill-opacity:1;stroke:none" />
        <path
           sodipodi:nodetypes="cccccccccccccc"
           inkscape:connector-curvature="0"
           id="path3171"
           d="m 289.46875,1005.9375 c -5.48163,0.7582 -11.98734,0.8392 -16.84375,2.6875 -1.9373,5.0154 2.55748,3.9074 5.90625,3.4062 3.59451,0.3727 17.82428,-4.0737 10.95226,1.2327 -7.14235,7.8574 -16.27585,14.3196 -20.98351,23.9861 -1.06343,2.9229 4.39751,6.2753 4.38727,1.3557 2.47271,-2.4546 5.12617,-6.2529 9.59211,-10.5003 4.60222,-5.6759 11.66022,-10.1643 13.70812,-17.4179 0.27291,-4.0948 -3.28014,-5.0861 -6.71875,-4.75 z m 1.78125,29.75 c -4.45115,0.917 -15.13672,-1.3668 -18.46696,0.802 0.0858,4.5223 -7.28308,4.319 0.30152,4.1403 14.96683,2.1893 28.06602,-5.083 21.85294,-5.161 -1.22926,0.07 -2.45833,0.146 -3.6875,0.2187 z"
           style="fill:#125da4;fill-opacity:1;stroke:none" />
        <path
           inkscape:connector-curvature="0"
           id="path3173"
           d="m 288.78125,1019.9688 c -5.01387,0.1224 -9.92295,0.8735 -14.71875,2 -1.53851,4.7112 0.81108,5.9144 5.2119,4.4456 6.94094,-0.8862 14.13177,-2.0675 20.31935,-5.4144 -3.41402,-1.35 -7.17952,-1.0117 -10.8125,-1.0312 z"
           style="fill:#125da4;fill-opacity:1;stroke:none" />
        <path
           inkscape:connector-curvature="0"
           id="path3175"
           d="m 325.21875,1005.1562 c -7.45444,0.7986 -13.03201,8.2563 -14.8125,15.125 -3.24757,5.148 -7.35688,14.7849 -0.1875,18.5 8.38121,2.9524 17.15305,-4.1176 21.78125,-10.6874 5.30663,-6.3883 6.88754,-19.3637 -3.03125,-22.375 -1.24475,-0.3841 -2.44575,-0.6884 -3.75,-0.5626 z m -0.125,4.875 c 6.05951,-0.5873 7.21745,7.1803 4.75,11.2813 -3.1837,6.9125 -9.47266,13.3736 -17.3125,14.2813 -4.28526,-3.1613 0.16986,-9.1817 1.71875,-12.7813 2.06941,-3.61 4.57201,-6.8823 7.09375,-10.1875 -2.48245,-1.908 2.28459,-2.245 3.75,-2.5938 z"
           style="fill:#125da4;fill-opacity:1;stroke:none" />
        <path
           inkscape:connector-curvature="0"
           id="path3177"
           d="m 361.0625,1006.2812 c -6.26606,8.0281 -11.10912,17.1966 -18.09375,24.6876 0.0588,-4.7067 1.83677,-9.9764 1.96875,-14.25 -5.26172,-2.0426 -3.90901,5.4378 -5.53125,8.4687 -0.1267,4.2295 -3.76837,9.6414 -1.3125,13.4687 3.53163,1.8335 6.39581,-3.6738 8.8125,-5.5 4.61006,-5.0051 8.48782,-10.7139 12.375,-16.3437 0.38946,6.8359 0.0849,17.6533 8.6875,19.375 2.58204,0.3695 7.12149,-0.3675 7.4375,-3.0313 -3.64841,-0.8128 -9.53477,-1.1413 -9.6875,-6.3437 -1.47369,-6.0893 0.6885,-13.0527 -0.625,-18.6875 -1.2394,-0.5957 -2.63251,-1.9238 -4.03125,-1.8438 z"
           style="fill:#125da4;fill-opacity:1;stroke:none" />
        <path
           inkscape:connector-curvature="0"
           id="path3179"
           d="m 398.90625,1001.25 c -14.97592,1.2306 -24.99266,20.6447 -15.5625,32.8438 10.69911,14.2097 33.51666,11.2486 44.49096,-0.96 2.89942,-2.9141 -7.62565,0.1994 -9.99096,1.0224 -9.71634,3.2717 -23.17011,5.0121 -29.78125,-4.7187 -3.78592,-4.5819 4.43435,-5.6567 6.96875,-8.2187 5.03359,-3.8672 12.59729,-8.7854 11.5625,-16.0626 -1.12651,-2.9562 -4.75003,-4.2492 -7.6875,-3.9062 z m 2.3125,2.875 c 4.61092,0.035 0.61729,5.7211 -1.46875,7.4688 -4.76095,4.9676 -10.40379,9.0541 -15.6875,13.5 2.09922,-8.9026 6.56667,-18.5555 16.25,-20.75 l 0.4375,-0.2188 0.46875,0 z"
           style="fill:#125da4;fill-opacity:1;stroke:none" />
      </g>
      <path
         style="fill:#000000;fill-opacity:0.12135925;stroke:none"
         d="m 391.4113,1140.4169 c 0.54278,0.1879 1.06771,0.4464 1.52671,0.8126 2.96648,2.7817 0.54559,7.4543 -1.05885,10.3915 -1.76301,2.9758 -3.79268,5.7567 -5.98373,8.3723 0.0434,0.7135 0.0794,1.429 0.12312,2.1423 0.33222,-0.5765 0.65867,-1.1647 0.98498,-1.7483 -0.002,-0.041 0.002,-0.082 0,-0.1231 0.0824,-0.098 0.16433,-0.1967 0.24624,-0.2955 1.61415,-2.8969 3.19733,-5.8319 5.09726,-8.4954 0.36233,-0.8749 0.92137,-1.3137 1.57596,-1.4036 1.37516,-2.8117 2.53339,-6.3092 0.12312,-8.5693 -0.76671,-0.6118 -1.68024,-0.9344 -2.63481,-1.0835 z m -40.13778,0.4186 c -0.29494,0.156 -0.57165,0.33 -0.86185,0.4925 -0.14104,1.1105 -2.30822,2.0971 -2.78256,3.152 -10.09933,10.2986 -20.70704,20.674 -26.61897,34.0555 -1.68952,3.5556 -3.65868,8.8991 0.14774,11.8443 1.17488,0.8343 2.43999,1.3098 3.74291,1.5514 -0.90848,-0.2801 -1.79679,-0.6854 -2.63481,-1.2805 -3.80643,-2.9452 -1.83726,-8.2887 -0.14775,-11.8443 5.91194,-13.3815 16.51964,-23.7569 26.61898,-34.0556 0.57975,-1.2893 3.68956,-2.4812 2.53631,-3.9153 z m 37.18285,0.8126 c -0.84265,0 -1.65853,0.1263 -2.29007,0.2955 -0.56935,-0.09 -1.49974,0.3016 -2.24082,0.4679 0.35446,0.9457 2.36955,-0.352 3.34892,-0.197 1.00372,-0.269 2.46289,-0.385 3.76753,-0.1724 -0.77191,-0.2813 -1.68698,-0.396 -2.58556,-0.394 z m -14.25753,2.9304 c -0.072,0.019 -0.1666,0.083 -0.27087,0.1723 -0.16778,0.075 -0.32632,0.1684 -0.49248,0.2463 0.0245,0.3481 0.038,0.7251 0.12312,0.8618 -5.03806,3.0401 -9.2405,7.0085 -13.14943,11.3026 3.40481,3.2068 6.59449,6.7738 8.29842,11.1056 0.49386,0.4662 0.99671,0.9255 1.50209,1.379 -1.56852,-4.8295 -5.00492,-8.7408 -8.69241,-12.2137 3.90893,-4.2941 8.11137,-8.2625 13.14943,-11.3026 -0.18262,-0.2933 0.0363,-1.6838 -0.46787,-1.5513 z m 153.45927,0.5909 c 0.69626,0.2825 1.30366,0.7629 1.57596,1.4775 0.46398,3.2629 -2.91417,5.4563 -5.17112,7.1903 -1.13637,1.1487 -4.82483,1.6392 -3.1273,3.6937 1.24427,1.8314 3.02557,2.7537 4.99875,3.1027 -1.52659,-0.4704 -2.88448,-1.3509 -3.89065,-2.8318 -1.69754,-2.0545 1.99092,-2.545 3.12729,-3.6937 2.25695,-1.734 5.63511,-3.9273 5.17113,-7.1903 -0.41119,-1.0791 -1.56021,-1.6514 -2.68406,-1.7484 z m -1.03423,1.0096 -0.19699,0.098 c -4.3418,0.9839 -6.34757,5.3165 -7.28882,9.3081 0.49437,-0.416 0.99985,-0.824 1.50208,-1.2313 1.07385,-3.5168 3.09576,-6.945 6.89484,-7.8059 l 0.12312,-0.049 c -0.13397,-0.1956 -0.39193,-0.3167 -0.83723,-0.3202 l -0.197,0 z m -32.08559,0.7634 c 4.32471,1.4124 3.6153,7.1325 1.25584,9.9729 -1.87609,2.6631 -5.28,5.503 -8.69241,5.048 0.0105,0.01 0.014,0.019 0.0246,0.025 3.75796,1.3238 7.70071,-1.8561 9.77589,-4.8018 2.37938,-2.8644 3.09304,-8.6719 -1.35434,-10.0221 -0.33753,-0.1041 -0.67048,-0.1758 -1.0096,-0.2216 z m -15.78424,0.3201 c 0.62514,0.3081 1.04914,0.8841 0.98497,1.8468 -0.45594,1.6149 -1.48097,2.9411 -2.63481,4.1616 0.45154,0 0.90286,-0.01 1.35435,0 1.05016,-1.1468 1.96585,-2.3935 2.38856,-3.8907 0.0977,-1.4659 -0.90265,-2.0227 -2.09307,-2.1177 z m 31.17449,0.1478 c -0.0251,0.032 -0.0489,0.066 -0.0739,0.099 0.26032,0.1637 0.52153,0.3516 0.76335,0.4678 0.58896,2.5265 -0.36527,5.642 0.2955,8.3723 0.0548,1.8657 1.73775,2.3328 3.25042,2.6348 -1.12287,-0.3478 -2.10107,-0.9588 -2.14233,-2.3639 -0.66076,-2.7303 0.29346,-5.8458 -0.29549,-8.3723 -0.55572,-0.2671 -1.17041,-0.8731 -1.79758,-0.8372 z m -95.34568,1.0834 c 3.15411,0.948 5.94883,3.4875 6.50084,6.624 0.27773,-0.2528 0.54637,-0.4998 0.83723,-0.7387 -1.03067,-3.0063 -4.11054,-5.3154 -7.33807,-5.8853 z m 78.60109,0.3201 c -0.15278,-0.011 -0.32268,0.01 -0.49249,0.025 -0.65706,0.1564 -2.78754,0.3018 -1.67446,1.1573 -1.1307,1.482 -2.24867,2.9368 -3.17655,4.5555 -0.69448,1.6139 -2.7094,4.3201 -0.78798,5.7375 0.2376,-0.028 0.4583,-0.098 0.68948,-0.1477 -1.13491,-1.4837 0.57535,-3.8519 1.2066,-5.3189 0.92788,-1.6187 2.04585,-3.0735 3.17655,-4.5555 -1.11308,-0.8555 1.0174,-1.001 1.67446,-1.1574 0.10205,-0.01 0.1971,-0.02 0.29549,-0.025 -0.26395,-0.1517 -0.5596,-0.2444 -0.9111,-0.2709 z m -51.44038,0.1478 c 0.12367,0.038 0.24757,0.079 0.36937,0.1231 0.19753,0.033 0.38311,0.066 0.56636,0.1231 -0.31079,-0.089 -0.61659,-0.1898 -0.93573,-0.2462 z m 0.93573,0.2462 c 2.74875,0.8579 3.86888,4.3183 2.53631,6.7717 -2.72605,5.3139 -8.17114,8.8735 -13.96203,10.3177 -0.18049,6.5485 -1.039,13.0755 -1.77296,19.5764 -0.69111,3.6331 -0.65676,7.7607 -2.31469,11.081 0.26828,0.057 0.60517,0.1215 0.93573,0.6156 1.84121,-3.376 1.77188,-7.6661 2.48706,-11.4258 0.73396,-6.5008 1.59247,-13.0279 1.77296,-19.5764 5.79088,-1.4442 11.23597,-5.0037 13.96203,-10.3176 1.42139,-2.617 0.0578,-6.3651 -3.10267,-6.8948 -0.17573,-0.064 -0.36224,-0.096 -0.54174,-0.1478 z m 34.27717,-0.1231 c -1.26277,-0.01 -4.13919,0.7448 -5.1465,0.6402 -0.50347,0.075 -1.06243,0.1742 -1.55134,0.197 0.45383,0.4896 1.66468,0.2228 2.65944,0.074 0.89057,0.092 3.19917,-0.4631 4.60476,-0.591 0.0664,-0.2291 -0.14544,-0.3173 -0.56636,-0.3201 z m -92.07064,1.0342 c -0.0616,-10e-4 -0.11776,0.01 -0.17237,0.025 0.30711,0.1434 0.60459,0.3041 0.83723,0.3201 -0.0118,2.0054 0.0263,4.006 0.12312,6.0083 0.36021,-0.4092 0.71243,-0.8364 1.05885,-1.2558 -0.0504,-1.4932 -0.0827,-2.9858 -0.0739,-4.4816 -0.48092,-0.033 -1.23953,-0.6069 -1.77296,-0.6157 z m 26.98835,0.049 c -2.81794,-0.079 -5.6878,1.2188 -6.96871,3.8906 -0.90826,0.9275 -0.96398,3.0651 -2.04383,3.546 -0.0132,0.083 -0.0382,0.1635 -0.0492,0.2462 2.27471,0.8368 2.04367,-2.3393 3.20117,-3.5213 1.44102,-3.0058 4.89955,-4.2636 8.02755,-3.7921 -0.70499,-0.2088 -1.42559,-0.3486 -2.16694,-0.3694 z m -16.59685,0.1477 c 0.20707,0.099 0.40829,0.2203 0.61561,0.3694 0.62646,5.6492 0.29693,11.7562 2.2162,17.2863 0.52922,0.8053 0.32817,1.1634 -0.0985,1.2313 0.90541,0.5118 2.11664,0.4243 1.20659,-0.9604 -1.91927,-5.5301 -1.58973,-11.6371 -2.21619,-17.2863 -0.58465,-0.4205 -1.17921,-0.6435 -1.72371,-0.6403 z m -43.04345,0.1478 c -0.0774,0.07 -0.13956,0.1293 -0.197,0.197 1.89597,1.0129 3.82937,2.5804 5.54049,3.9399 0.26464,0.2343 0.52231,0.4765 0.78798,0.7141 0.12535,-0.1302 0.24326,-0.2647 0.36937,-0.394 -0.0173,-0.015 -0.0319,-0.034 -0.0492,-0.049 -1.99177,-1.5823 -4.25849,-3.4728 -6.45159,-4.4077 z m 86.03765,0.3201 c -6.31689,0 -12.49556,3.0284 -17.28633,7.018 -0.0278,0.1171 -0.0641,0.2269 -0.0985,0.3447 -2.3103,5.7642 -9.03252,8.9399 -15.07014,8.6678 -0.065,7.6375 -1.02944,15.2732 -2.24082,22.7776 -0.008,0.912 -0.27263,1.4564 -0.8126,1.6005 10e-4,0.049 -0.001,0.099 0,0.1478 1.29924,0.5341 1.90805,-0.077 1.9207,-1.4775 1.21138,-7.5043 2.17577,-15.1401 2.24082,-22.7775 6.03762,0.2721 12.75984,-2.9036 15.07013,-8.6678 0.0344,-0.1178 0.0707,-0.2277 0.0985,-0.3448 5.46286,-4.5492 12.72518,-7.8401 19.94577,-6.8209 -0.34497,-0.1414 -0.69672,-0.2493 -1.05885,-0.2709 -0.90458,-0.1301 -1.80628,-0.1966 -2.70869,-0.197 z m 69.76093,1.0835 c -1.74293,2.5243 -3.49807,5.0938 -5.56511,7.338 -0.84292,0.637 -1.80123,2.2537 -2.93031,2.561 0.0314,0.06 0.0609,0.1138 0.0985,0.1724 1.58351,0.8221 2.85631,-1.6437 3.9399,-2.4625 1.66987,-1.813 3.13477,-3.843 4.55552,-5.8852 -0.0326,-0.5953 -0.0688,-1.203 -0.0985,-1.7237 z m -6.10685,0.074 c -0.1471,0.01 -0.25675,0.044 -0.36937,0.099 -0.10686,1.8765 -0.81182,4.1497 -0.83723,6.1808 0.44754,-0.48 0.86789,-0.9947 1.28047,-1.5021 0.23726,-1.6016 0.64643,-3.2352 0.68949,-4.6294 -0.29491,-0.1145 -0.55322,-0.155 -0.76336,-0.1478 z m -122.97426,1.3298 c -0.28797,0.013 -0.49805,0.1028 -0.66486,0.2462 0.25268,1.9657 -0.20348,4.3684 0.2955,6.427 0.32683,-0.461 0.61011,-0.9421 0.88647,-1.4282 -3.6e-4,-0.01 3.5e-4,-0.016 0,-0.025 -0.0739,-1.7808 0.1942,-3.6622 -0.12312,-5.1957 -0.14258,-0.021 -0.27589,-0.03 -0.39399,-0.025 z m 102.11739,0.394 c 0.0669,0.023 0.13066,0.048 0.197,0.074 -2.05852,1.1134 -4.37353,1.6816 -6.69784,2.0685 -0.34954,0.3654 -0.67398,0.7491 -0.98498,1.1327 -1.33706,1.2716 -2.29709,2.4256 -3.12729,3.3982 0.41858,-0.052 0.8988,-0.077 1.40359,-0.074 0.76789,-0.9016 1.63969,-1.9197 2.8318,-3.0534 0.31099,-0.3836 0.63544,-0.7673 0.98498,-1.1328 2.32431,-0.3869 4.63931,-0.955 6.69784,-2.0684 -0.42347,-0.1675 -0.86204,-0.2734 -1.3051,-0.3447 z m -87.44125,0.3939 c -1.46417,1.9635 -2.75945,4.0658 -4.06302,6.1315 -1.02512,1.1254 -1.84495,3.7285 -3.49667,4.0138 0.042,0.057 0.078,0.1171 0.12313,0.1724 2.35275,0.8065 3.27014,-2.5853 4.48164,-3.9153 0.97407,-1.5436 1.96543,-3.0935 3.00417,-4.6048 -1.1e-4,-0.01 1.2e-4,-0.016 0,-0.025 -0.008,-0.5998 -0.0213,-1.1907 -0.0493,-1.773 z m -10.34224,2.0192 c -0.72526,1.7207 -1.48303,3.4376 -2.24082,5.1465 0.7261,-0.6875 1.43902,-1.4017 2.14232,-2.1177 0.13277,-0.3033 0.26234,-0.6073 0.39399,-0.9111 -0.0629,-0.7327 -0.13289,-1.4561 -0.29549,-2.1177 z m 71.70625,2.1916 c -0.10351,-0.013 -0.22798,0.015 -0.34474,0.025 0.75497,0.937 0.56213,5.4721 -2.1177,8.2738 -0.8191,0.6283 -1.4635,1.048 -2.04382,1.1574 0.87581,0.6879 1.78083,0.1648 3.15192,-0.8865 3.06266,-3.202 2.88784,-8.6427 1.74833,-8.4215 -0.12089,-0.074 -0.24627,-0.129 -0.39399,-0.1478 z m -22.77757,0.6156 c -0.24856,-0.01 -0.49136,0.029 -0.73873,0.049 -0.12496,0 -0.24221,0.021 -0.34474,0.049 0.10262,1.5662 0.14496,3.1389 0.14774,4.7033 0.36534,-0.1265 0.72192,-0.2826 1.08348,-0.4186 -0.0139,-1.46 -0.043,-2.9246 -0.14775,-4.3832 z m 107.65788,0.025 c -0.2076,-0.035 -0.56289,0.033 -0.96035,0.098 -0.0362,0.053 -0.0821,0.1065 -0.14775,0.1724 -3.21225,3.5736 -8.69649,5.3775 -13.44492,4.4324 4.98105,1.5004 11.08534,-0.3038 14.55302,-4.1615 0.32501,-0.3267 0.27636,-0.4955 0,-0.5417 z m -181.11247,0.098 c -4.22256,4.8214 -8.15927,9.9491 -12.53382,14.6023 -0.38566,0.8391 -0.76716,1.6721 -1.1081,2.5363 5.14516,-5.0752 9.58756,-10.9122 14.35603,-16.3998 -0.2382,-0.246 -0.47496,-0.4938 -0.71411,-0.7388 z m 47.86984,0.099 -0.17237,0.049 c -0.377,-0.05 -0.67465,-0.034 -0.91111,0.049 0.14025,1.7207 0.24027,3.4478 0.27087,5.1712 0.35479,-0.081 0.72134,-0.1505 1.08348,-0.2217 -0.0414,-1.6839 -0.12744,-3.368 -0.27087,-5.048 z m 108.61823,0.1478 c -0.17806,1.0592 -1.87095,1.4073 -3.0288,1.3297 0.24796,0.1026 0.52072,0.1878 0.8126,0.2463 1.15774,0.1657 3.18261,-0.1601 3.3243,-1.3544 -0.33461,-0.075 -0.72076,-0.1439 -1.1081,-0.2216 z m -34.96665,1.2558 c -0.13984,0.01 -0.27913,0.016 -0.41861,0.025 -0.15198,0.798 -5.03746,2.8167 -10.49,2.0192 l -0.36936,0 c -0.0374,0.04 -0.0807,0.072 -0.12313,0.099 0.0436,0.039 0.0763,0.089 0.12313,0.1231 -0.0651,0.044 -0.0177,0.069 0.12312,0.074 0.35076,0.2062 0.73105,0.244 0.98497,-0.025 0.16453,0 0.15328,0.01 0.36937,0 6.71081,0.9816 12.58633,-2.2798 9.80051,-2.3147 z m -96.18291,1.576 c -2.07503,2.2945 -4.28042,4.4372 -6.59934,6.5008 -0.0348,0.065 -0.0636,0.132 -0.0985,0.197 -0.19028,1.1124 -0.86149,1.4174 -1.69908,1.3544 -5.00209,4.252 -10.39146,8.0835 -15.83349,11.6966 -9.8269,6.1172 -20.42249,12.2036 -32.20872,12.6569 -0.92719,0.069 -1.8771,-0.025 -2.80718,-0.2216 1.27481,0.4125 2.61406,0.5888 3.91528,0.4925 11.78623,-0.4533 22.38182,-6.5398 32.20872,-12.657 5.44202,-3.613 10.83139,-7.4445 15.83349,-11.6966 0.83758,0.063 1.5088,-0.2419 1.69908,-1.3543 0.0349,-0.065 0.0638,-0.1323 0.0985,-0.197 2.05291,-1.8269 4.02195,-3.7115 5.88523,-5.7129 -0.003,-0.01 0.003,-0.018 0,-0.025 -0.15584,-0.333 -0.29446,-0.675 -0.39399,-1.0342 z m 44.22543,4.7525 c -0.5244,0.066 -1.05402,0.1178 -1.57597,0.1478 -0.0845,0.026 -0.2004,0.028 -0.32011,0.025 0.5177,0.2203 1.11536,0.3424 1.42821,0.2462 0.13895,-0.01 0.27882,-0.038 0.41862,-0.049 0.0147,-0.1233 0.0346,-0.2461 0.0493,-0.3694 z"
         id="path3139-5"
         inkscape:connector-curvature="0" />
      <path
         inkscape:connector-curvature="0"
         d="m 372.94467,1167.6104 c 2.25603,-2.0447 4.22096,-4.3791 6.20787,-6.6783 3.34375,-3.7802 6.47841,-7.7557 9.96845,-11.4059 0.78396,-0.8199 1.61059,-1.5979 2.41589,-2.397 0.0866,-0.068 1.0518,1.1568 0.96516,1.2251 l 0,0 c -0.62603,1.0659 -1.19501,2.1673 -1.87813,3.1974 -0.63651,0.9599 -1.35888,1.8608 -2.07445,2.7632 -2.45608,3.0977 -5.23366,5.9239 -7.92267,8.8148 -2.1724,2.2029 -4.35056,4.5759 -7.12569,6.0251 -0.10915,0.039 -0.66564,-1.5051 -0.55643,-1.5444 z"
         id="path4067"
         style="fill:#ffffff;fill-opacity:0.13392855;stroke:none" />
    </g>
  </g>
</svg>
